:SAMPLES-PER-SECOND 30
:FRAME-RANGE 1-1390
:FULLY-SPECIFIED
:DEGREES
174
root  7.37476 36.4098 -39.5094 -172.318 83.1179 -163.06
RightUpLeg  -18.3449 -7.39624 11.1945
RightLeg  51.2398 -5.12454 -7.181
RightFoot  -16.0264 -0.159952 -1.26065
RightToes  -2.9104e-010 0 -3.6325e-017
Spine  19.8806 -1.43727 -2.85456
Spine1  3.08083 -5.07672 1.08244
HEad  4.63075 12.7311 -3.09461
LeftShoulder1  3.75678 -6.4071 -31.9096
LeftArm  75.5363 -37.8251 -85.6319
LeftForeArm  8.03457 -14.7523 -13.6952
LeftHand  -0.0474627 3.81797 2.10195
RightShoulder  14.4597 25.0649 43.9825
RightArm  48.2958 12.0362 24.6797
RightForeArm  11.8577 20.7124 6.07348
RightHand  0.677409 4.65316 7.51723
LeftUpLeg  -90.9296 24.0107 -70.7825
LeftLeg  119.997 -3.51771 5.08422
LeftFoot  6.23021 0.662767 -4.53292
LeftToes  5.45371e-012 -1.3743e-010 1.09575e-010
175
root  7.64822 36.383 -39.5412 -174.716 82.4232 -164.903
RightUpLeg  -20.6986 -6.17484 10.8047
RightLeg  56.1918 -4.74693 -8.0212
RightFoot  -11.1465 -0.0826061 4.08918
RightToes  -2.9104e-010 0 -3.6325e-017
Spine  21.3683 -1.28403 -1.97288
Spine1  1.49639 -4.56512 0.379123
HEad  4.13686 12.1559 -3.40091
LeftShoulder1  3.72754 -6.41212 -31.5941
LeftArm  79.8112 -37.4119 -86.6494
LeftForeArm  3.47351 -15.8589 -12.9464
LeftHand  -0.0391302 4.1274 1.66808
RightShoulder  14.0033 24.6544 43.1773
RightArm  47.8386 11.2362 24.9221
RightForeArm  11.7043 21.3998 5.45515
RightHand  0.691505 4.82112 7.54198
LeftUpLeg  -90.8827 22.9399 -70.8541
LeftLeg  119.408 -4.82065 7.31082
LeftFoot  5.43737 0.849565 -5.98225
LeftToes  5.45371e-012 -1.3743e-010 1.09575e-010
176
root  7.92595 36.1736 -39.4768 -173.731 80.7925 -163.457
RightUpLeg  -20.3431 -5.39973 11.4165
RightLeg  54.0749 -6.61912 -10.1076
RightFoot  -13.6646 -0.0506832 2.06526
RightToes  -2.9104e-010 0 -3.6325e-017
Spine  22.2224 -1.1669 -1.65682
Spine1  1.10062 -4.61134 1.03974
HEad  1.51229 11.3835 -3.35688
LeftShoulder1  3.72615 -6.39538 -31.6438
LeftArm  81.4113 -37.639 -88.0068
LeftForeArm  1.94913 -16.1312 -12.77
LeftHand  -0.0389531 4.2805 1.80941
RightShoulder  13.5346 24.3933 42.0529
RightArm  47.2069 10.7969 24.5745
RightForeArm  11.3161 22.6685 4.65866
RightHand  0.637143 4.60016 7.09534
LeftUpLeg  -90.394 21.744 -70.1742
LeftLeg  118.326 -5.19151 8.25622
LeftFoot  6.41381 1.00762 -6.69682
LeftToes  5.45371e-012 -1.3743e-010 1.09575e-010
177
root  8.22307 35.7592 -39.3802 -172.781 79.2868 -162.751
RightUpLeg  -18.3213 -4.33015 12.666
RightLeg  48.9318 -11.2102 -13.7761
RightFoot  -21.1438 -0.327496 -2.15074
RightToes  -2.9104e-010 0 -3.6325e-017
Spine  22.4239 -1.02583 -1.76092
Spine1  0.770095 -4.72631 1.68755
HEad  -0.678937 10.699 -2.45825
LeftShoulder1  3.72598 -6.40953 -31.5881
LeftArm  83.5143 -37.339 -88.3864
LeftForeArm  0.0037855 -16.6522 -12.369
LeftHand  -0.0487504 3.88114 2.2753
RightShoulder  13.3042 24.3074 41.4183
RightArm  45.6853 10.7744 24.3493
RightForeArm  13.108 23.304 4.38976
RightHand  0.579139 4.56619 6.44885
LeftUpLeg  -90.414 20.5117 -69.8374
LeftLeg  117.312 -4.18101 6.84177
LeftFoot  6.11535 1.00901 -6.81007
LeftToes  5.45371e-012 -1.3743e-010 1.09575e-010
178
root  8.49164 35.0542 -39.333 -172.77 78.9012 -163.091
RightUpLeg  -20.3693 -0.784563 13.6985
RightLeg  54.0016 -12.2266 -17.7685
RightFoot  -24.2822 -0.230554 -0.582609
RightToes  -2.9104e-010 0 -3.6325e-017
Spine  23.4026 -0.884419 -1.53228
Spine1  0.0542039 -4.40245 1.2619
HEad  -3.75917 10.1893 -2.12535
LeftShoulder1  3.70884 -6.41113 -31.4081
LeftArm  87.2354 -36.8714 -88.1838
LeftForeArm  -5.23108 -17.692 -11.5883
LeftHand  -0.0510836 3.77621 2.33794
RightShoulder  13.4793 24.683 41.393
RightArm  43.6668 10.8381 23.8459
RightForeArm  15.1854 23.8997 4.31701
RightHand  0.5766 4.59082 6.40189
LeftUpLeg  -91.2947 20.0647 -70.6551
LeftLeg  116.357 -3.19788 5.32273
LeftFoot  4.95547 0.853932 -6.17134
LeftToes  5.45371e-012 -1.3743e-010 1.09575e-010
179
root  8.67811 34.3821 -39.256 -170.765 78.111 -160.786
RightUpLeg  -21.8829 -1.29731 14.8583
RightLeg  57.8435 -11.6369 -19.5188
RightFoot  -26.0032 -0.255606 -0.616724
RightToes  -2.9104e-010 0 -3.6325e-017
Spine  24.0283 -1.01688 -1.47257
Spine1  0.821163 -4.64752 1.72294
HEad  -7.92523 10.4655 -2.74158
LeftShoulder1  3.70281 -6.38506 -31.4458
LeftArm  84.6981 -37.3527 -88.1188
LeftForeArm  -4.50525 -17.0087 -12.259
LeftHand  -0.0698061 3.33005 3.04762
RightShoulder  13.8873 25.5982 41.2708
RightArm  42.5425 11.5482 23.1555
RightForeArm  15.943 23.9897 4.2961
RightHand  0.533407 4.50448 5.95895
LeftUpLeg  -91.3319 20.4884 -70.3739
LeftLeg  115.504 -2.94356 5.03872
LeftFoot  5.28471 0.662345 -4.75206
LeftToes  5.45371e-012 -1.3743e-010 1.09575e-010
180
root  9.04785 33.7826 -39.1831 -170.157 76.2275 -159.638
RightUpLeg  -22.5155 -3.78846 15.8076
RightLeg  60.8375 -10.5751 -20.1035
RightFoot  -28.5103 -0.264329 -0.469068
RightToes  -2.9104e-010 0 -3.6325e-017
Spine  24.0657 -1.15415 -1.48035
Spine1  1.84349 -5.0427 2.87554
HEad  -9.80783 10.016 -2.28201
LeftShoulder1  3.70048 -6.36548 -31.4967
LeftArm  81.7432 -37.6633 -88.7594
LeftForeArm  0.132105 -16.0615 -12.9294
LeftHand  -0.0770301 3.48499 3.72064
RightShoulder  13.7729 25.2709 41.4168
RightArm  41.427 11.6053 22.7057
RightForeArm  16.5268 24.6596 4.40877
RightHand  0.549344 4.33263 6.26554
LeftUpLeg  -90.0272 20.5871 -68.9256
LeftLeg  116.153 -2.83083 4.68929
LeftFoot  5.20326 0.586157 -4.24879
LeftToes  5.45371e-012 -1.3743e-010 1.09575e-010
